<svg width="66" height="66" viewBox="0 0 66 66" fill="none" xmlns="http://www.w3.org/2000/svg">
<rect width="66" height="66" fill="#5A5A5A"/>
<path d="M35.6969 33.012L55.4152 13.2937C56.1763 12.5587 56.1974 11.3459 55.4624 10.5849C54.7274 9.82384 53.5146 9.80273 52.7536 10.5377C52.7376 10.5531 52.7219 10.5688 52.7064 10.5849L32.988 30.3032L13.2697 10.5848C12.5087 9.84977 11.2959 9.87087 10.5609 10.6319C9.84389 11.3743 9.84389 12.5512 10.5609 13.2937L30.2792 33.012L10.5609 52.7303C9.81302 53.4783 9.81302 54.691 10.5609 55.439C11.309 56.1868 12.5217 56.1868 13.2697 55.439L32.988 35.7207L52.7063 55.439C53.4674 56.1741 54.6801 56.153 55.4151 55.3919C56.132 54.6495 56.132 53.4726 55.4151 52.7303L35.6969 33.012Z" fill="white"/>
</svg>
