<svg width="100" height="78" viewBox="0 0 100 78" fill="none" xmlns="http://www.w3.org/2000/svg">
<path d="M96.0315 0.57988H3.96848C1.77667 0.57988 0 2.3569 0 4.54836V73.4516C0 75.6431 1.77667 77.4201 3.96848 77.4201H96.0319C98.2233 77.4201 100 75.6434 100 73.4516V4.54836C100 2.3569 98.223 0.57988 96.0315 0.57988ZM35.8514 54.5032L39.2928 42.4545H26.4489L23.0061 54.5032H15.1229L23.9801 23.4968H31.8653L28.2207 36.2539H41.0639L44.7086 23.4968H52.5946L43.7353 54.5032H35.8514ZM84.1757 39C81.556 48.1686 72.9245 54.5032 62.9586 54.5032H49.9373L55.7893 34.0179H63.6725L59.6182 48.2117H65.2431C70.0712 48.2117 74.5892 44.4919 76.145 39.0451C77.7143 33.5518 75.158 29.7876 70.1528 29.7876H56.9964L58.7938 23.4968H72.1266C81.8712 23.4968 86.8061 29.7876 84.1757 39Z" fill="white"/>
</svg>
